<?xml version="1.0" encoding="UTF-8"?><svg xmlns="http://www.w3.org/2000/svg" xmlns:xlink="http://www.w3.org/1999/xlink" height="499.8" preserveAspectRatio="xMidYMid meet" version="1.1" viewBox="-0.1 0.0 416.7 499.8" width="416.7" zoomAndPan="magnify">
 <defs>
  <clipPath id="clip1">
   <path d="m25 161h391.6v338.8h-391.6z"/>
  </clipPath>
 </defs>
 <g id="surface1">
  <g clip-path="url(#clip1)" id="change1_1">
   <path d="m416.61 161.4h-64.61v338.4h64.61zm-108.81 73.7h-64.6v264.7h64.6zm-108.8 53.9h-64.59v210.8h64.59zm-108.79 210.8h-64.602v-170h64.602v170" fill="#53c28b"/>
  </g>
  <g id="change2_1"><path d="m368.91 13.801c-27.21 41.199-74.5 96.499-149.5 137.2-75.3 40.9-147.91 50.6-200 50.6-5.605 0-10.906-0.1-16.004-0.3-1.9998-0.1-3.4998-1.7-3.4021-3.7 0.10157-2 1.8008-3.4 3.7031-3.4 51.598 2 130.4-4.9 212.4-49.4 75.5-41 122.39-97.101 148.89-137.8h-60.5c-2 0-3.5-1.6016-3.5-3.5s1.61-3.5 3.5-3.5h68c2 0 3.5 1.6016 3.5 3.5v69.102c0 2-1.59 3.5-3.5 3.5-1.89 0-3.5-1.602-3.5-3.5v-58.801zm22.09 459.8h-57.5v-331.3h57.5zm3.5-338.4h-64.59c-2 0-3.5 1.6-3.5 3.5v338.4c0 2 1.59 3.5 3.5 3.5h64.59c2 0 3.5-1.6 3.5-3.5v-338.3c0.11-2-1.5-3.6-3.5-3.6zm-112.3 338.4h-57.5v-257.6h57.5zm3.5-264.7h-64.59c-2 0-3.5 1.6-3.5 3.5v264.7c0 2 1.59 3.5 3.5 3.5h64.59c2 0 3.5-1.6 3.5-3.5v-264.7c0.1-1.9-1.5-3.5-3.5-3.5zm-112.29 264.7h-57.5v-203.7h57.5zm3.5-210.8h-64.61c-2 0-3.5 1.6-3.5 3.5v210.8c0 2 1.61 3.5 3.5 3.5h64.61c2 0 3.5-1.6 3.5-3.5v-210.8c0.09-1.9-1.5-3.5-3.5-3.5zm-112.3 210.8h-57.5l0.0005-162.9h57.5zm3.5-170h-64.601c-2.0001 0-3.5001 1.6-3.5001 3.5l0.0000062 170c0 2 1.6016 3.5 3.5 3.5h64.601c2 0 3.5-1.6 3.5-3.5v-170c0.102-1.9-1.5-3.5-3.5-3.5" fill="#0f0e0c"/></g>
 </g>
</svg>